<?xml version="1.0" encoding="iso-8859-1"?>
<!-- Generator: Adobe Illustrator 19.0.0, SVG Export Plug-In . SVG Version: 6.00 Build 0)  -->
<svg version="1.1" id="Capa_1" xmlns="http://www.w3.org/2000/svg" xmlns:xlink="http://www.w3.org/1999/xlink" x="0px" y="0px"
	 viewBox="0 0 490 490" style="enable-background:new 0 0 490 490;" xml:space="preserve">
<g>
	<path d="M316.3,114.7l24.4-34.6c7-13.6,0-21.8,0-21.8L322,12.5C318.9,5.2,311.6,0,303.3,0H186.7c-8.3,0-15.6,5.2-18.7,12.5
		c0,0-19.8,44.7-19.8,45.8c-4.2,6.2-3.1,14.6,1,20.8l25,35.4c-71.6,28.5-122.7,99-122.7,181C51.5,402.6,138.9,490,245,490
		s193.5-87.4,193.5-194.5C438.5,213.7,387.6,143.4,316.3,114.7z M188.8,65.5l10.4-23.9h89.5l10.4,23.9L273.2,103
		c-9.2-1.4-18.6-2.1-28.2-2.1c-10,0-19.8,0.8-29.4,2.3C215.3,102.8,188.8,65.5,188.8,65.5z M245,449.4c-84.3,0-152.9-68.7-152.9-154
		s68.7-154,152.9-154s152.9,68.7,152.9,154C397.9,380.8,329.3,449.4,245,449.4z"/>
</g>
<g>
</g>
<g>
</g>
<g>
</g>
<g>
</g>
<g>
</g>
<g>
</g>
<g>
</g>
<g>
</g>
<g>
</g>
<g>
</g>
<g>
</g>
<g>
</g>
<g>
</g>
<g>
</g>
<g>
</g>
</svg>
